<?xml version="1.0" standalone="no"?><!DOCTYPE svg PUBLIC "-//W3C//DTD SVG 1.1//EN" "http://www.w3.org/Graphics/SVG/1.1/DTD/svg11.dtd"><svg t="1534315153263" class="icon" style="" viewBox="0 0 1024 1024" version="1.1" xmlns="http://www.w3.org/2000/svg" p-id="4080" xmlns:xlink="http://www.w3.org/1999/xlink" width="200" height="200"><defs><style type="text/css"></style></defs><path d="M11.617 458.905c0 0 31.903 23.62 42.523-19.335 0.263-0.89 0.434-1.82 0.651-2.774 9.927-46.726 26.746-139.225 101.081-225.397 0 0 93.501-126.678 288.079-156.433 0 0 40.702 5.983 28.785-33.068 0 0-1.694-25.73-49.892-18.751 0 0-143.82-2.276-286.257 143.040 0 0-83.44 76.875-124.967 212.743 0 0-9.487 49.844-9.143 59.1 0-0.002-5.115 34.805 9.143 40.874v0zM559.247 11.578c0 0-23.754 31.707 19.462 42.306 0.868 0.217 1.82 0.433 2.771 0.629 46.987 9.885 140.011 26.613 226.652 100.519 0 0 127.398 92.955 157.303 286.468 0 0-5.983 40.442 33.287 28.631 0 0 25.833-1.694 18.811-49.61 0 0 2.341-143.065-143.819-284.697 0 0-77.326-82.937-213.957-124.246 0 0-50.102-9.472-59.377-9.1 0-0.001-35.026-5.116-41.136 9.099v0zM1012.338 558.057c0 0-31.859-23.621-42.478 19.335-0.26 0.909-0.478 1.842-0.695 2.793-9.925 46.727-26.74 139.225-101.078 225.398 0 0-93.453 126.676-288.073 156.406 0 0-40.658-5.955-28.786 33.103 0 0 1.731 25.723 49.935 18.746 0 0 143.82 2.275 286.257-143.042 0 0 83.392-76.868 124.921-212.736 0 0 9.535-49.849 9.191-59.105 0 0 5.114-34.802-9.191-40.896v0zM462.541 1012.427c0 0 23.754-31.726-19.42-42.304-0.906-0.219-1.814-0.436-2.816-0.63-46.986-9.906-140.001-26.617-226.656-100.542 0 0-127.387-92.953-157.298-286.446 0 0 6.026-40.444-33.248-28.633 0 0-25.877 1.69-18.899 49.613 0 0-2.255 143.057 143.868 284.689 0 0 77.283 82.943 213.908 124.252 0 0 50.151 9.474 59.475 9.102 0-0.001 34.976 5.090 41.086-9.103v0zM190.069 461.093c0 0 26.27 19.049 37.451-19.509 0 0 22.717-85.452 56.699-119.418 0 0 57.43-68.093 128.519-85.234l41.396-12.789c0 0 36.281-5.438 14.914-39.138 0 0-8.846-14.523-38.838-10.509 0 0-63.328-0.848-139.318 59.188 0 0-67.398 56.064-95.181 122.166 0 0-11.441 27.873-17.603 54.116 0-0.001-22.713 45.687 11.964 51.127v0zM558.205 187.299c0 0-19.161 26.137 19.634 37.277 0 0 85.913 22.583 120.069 56.33 0 0 68.484 57.15 85.732 127.806l12.833 41.198c0 0 5.461 36.085 39.356 14.851 0 0 14.613-8.846 10.58-38.646 0 0 0.867-62.979-59.516-138.53 0 0-56.395-67.035-122.883-94.665 0 0-28.002-11.362-54.354-17.514 0.001-0.002-45.995-22.609-51.453 11.893v0zM833.535 551.444c0 0-26.311-19.047-37.49 19.51 0 0-22.713 85.452-56.611 119.417 0 0-57.477 68.093-128.561 85.236l-41.436 12.789c0 0-36.238 5.434-14.916 39.137 0 0 8.932 14.523 38.838 10.53 0 0 63.375 0.847 139.313-59.188 0 0 67.446-56.086 95.187-122.188 0 0 11.44-27.872 17.597-54.096 0.001 0.001 22.756-45.707-11.922-51.15v0zM466.485 825.237c0 0 19.159-26.115-19.63-37.275 0 0-85.914-22.563-120.071-56.33 0 0-68.484-57.129-85.738-127.806l-12.828-41.198c0 0-5.462-36.065-39.362-14.823 0 0-14.606 8.842-10.572 38.62 0 0-0.868 62.98 59.51 138.53 0 0 56.394 67.055 122.882 94.689 0 0 28.006 11.357 54.359 17.487-0.001 0 45.983 22.604 51.449-11.897v0zM323.317 460.009c0 0 28.953 21.78 45.599-12.070 0 0 16.518-60.511 95.748-93.127 0 0 20.287-19.958 4.384-44.882 0 0-10.324-16.624-43.698-0.672 0 0-71.861 16.513-108.358 112.435 0 0-11.705 33.183 6.327 38.318v0zM567.527 310.837c0 0-21.937 28.822 12.135 45.38 0 0 60.855 16.429 93.626 95.211 0 0 20.112 20.175 45.164 4.38 0 0 16.729-10.277 0.651-43.502 0 0-16.595-71.407-113.045-107.715 0 0-33.373-11.636-38.531 6.247v0zM707.706 550.687c0 0-29.044-21.802-45.689 12.049 0 0-16.47 60.533-95.707 93.151 0 0-20.286 19.964-4.42 44.882 0 0 10.318 16.604 43.777 0.652 0 0 71.783-16.514 108.281-112.435-0.001-0.002 11.703-33.159-6.243-38.3v0zM470.001 696.588c0 0 21.929-28.843-12.139-45.382 0 0-60.857-16.405-93.627-95.207 0 0-20.112-20.177-45.169-4.381 0 0-16.688 10.276-0.646 43.501 0 0 16.603 71.406 113.088 107.711 0 0 33.33 11.642 38.493-6.242v0zM470.001 696.588z" p-id="4081"></path></svg>