<?xml version="1.0" standalone="no"?><!DOCTYPE svg PUBLIC "-//W3C//DTD SVG 1.1//EN" "http://www.w3.org/Graphics/SVG/1.1/DTD/svg11.dtd"><svg t="1534318926172" class="icon" style="" viewBox="0 0 1024 1024" version="1.1" xmlns="http://www.w3.org/2000/svg" p-id="12113" xmlns:xlink="http://www.w3.org/1999/xlink" width="200" height="200"><defs><style type="text/css"></style></defs><path d="M146.669966 594.454944l353.808118 161.180959c0 0-27.471678 102.849436 27.402093 130.2239 54.920844 27.425629 91.518367 47.995107 167.787424-154.272619 76.247568-202.269773 155.544589-490.218928 155.544589-490.218928l-396.506593-85.732593L341.790922 551.550785l-44.731784-98.329493L418.108075 63.045895l539.849278 106.277512c0 0-228.739635 723.444736-247.061932 733.729987-18.323321 10.232039-57.508785 116.561739-300.181757 0C167.994644 786.490631 189.367417 793.349853 158.846286 752.207827 128.345622 711.067848 146.669966 594.454944 146.669966 594.454944L146.669966 594.454944zM471.641315 509.890966c-2.033309-0.51984-4.15974 0.935302-4.596691 3.221368l-6.977925 33.556257c-0.487094 2.335185 0.807389 4.622274 2.886747 5.14109l202.608487 53.138244c2.079358 0.571005 4.113691-0.883113 4.597715-3.168156l6.975878-33.556257c0.463558-2.284019-0.806365-4.622274-2.864234-5.194302L471.641315 509.890966 471.641315 509.890966zM508.355495 391.044184c-2.034333-0.467651-4.13518 0.98749-4.598738 3.272533l-6.92983 33.503045c-0.532119 2.338255 0.762363 4.675486 2.841721 5.195326l202.606441 53.138244c2.033309 0.571005 4.112668-0.883113 4.598738-3.168156l7.001461-33.503045c0.485047-2.390443-0.832971-4.674463-2.88777-5.247514L508.355495 391.044184 508.355495 391.044184zM539.778158 297.701263c-2.033309-0.544399-4.089132 0.909719-4.576225 3.194762l-7.000438 33.556257c-0.437975 2.285043 0.855484 4.623297 2.88777 5.16872l202.631 53.138244c2.079358 0.51984 4.114714-0.935302 4.644787-3.221368l6.930853-33.503045c0.485047-2.338255-0.76134-4.64888-2.88777-5.195326L539.778158 297.701263 539.778158 297.701263zM415.588695 485.426785c-19.339464 0-35.049261 16.829294-35.049261 37.606503 0 20.673855 15.71082 37.503149 35.049261 37.503149 19.363 0 35.096333-16.829294 35.096333-37.503149C450.685028 502.256078 434.951695 485.426785 415.588695 485.426785L415.588695 485.426785zM456.900589 363.203092c-19.340487 0-35.072797 16.829294-35.072797 37.555337s15.733333 37.554314 35.072797 37.554314c19.363 0 35.072797-16.829294 35.072797-37.554314S476.263589 363.203092 456.900589 363.203092L456.900589 363.203092zM491.049341 263.912715c-19.337417 0-35.049261 16.804734-35.049261 37.529755 0 20.726044 15.711843 37.528732 35.049261 37.528732 19.410072 0 35.096333-16.802688 35.096333-37.528732C526.145673 280.716426 510.459413 263.912715 491.049341 263.912715z" p-id="12114"></path><path d="M114.737696 112.626104l218.36638 455.286324c-2.771113 4.466732-8.501628 10.647501-20.447704 17.919115-13.400195 8.104585-28.258601 11.06501-39.256072 12.051477L63.490521 154.337087 114.737696 112.626104 114.737696 112.626104zM344.680738 609.051383l11.759835 66.382896-59.727313-48.565089C311.686277 625.986077 332.849272 622.037139 344.680738 609.051383z" p-id="12115"></path></svg>