<?xml version="1.0" standalone="no"?><!DOCTYPE svg PUBLIC "-//W3C//DTD SVG 1.1//EN" "http://www.w3.org/Graphics/SVG/1.1/DTD/svg11.dtd"><svg t="1534319293318" class="icon" style="" viewBox="0 0 1024 1024" version="1.1" xmlns="http://www.w3.org/2000/svg" p-id="15646" xmlns:xlink="http://www.w3.org/1999/xlink" width="200" height="200"><defs><style type="text/css"></style></defs><path d="M67.072 470.528h161.792v40.448H67.072v-40.448z m0-202.24h161.792v40.448H67.072v-40.448z" p-id="15647"></path><path d="M229.888 512.512h-163.84v-43.008h163.84v43.008z m-161.28-2.56h159.232v-37.888H68.608v37.888z m161.28-199.68h-163.84v-43.008h163.84v43.008z m-161.28-2.56h159.232v-37.888H68.608v37.888z" p-id="15648"></path><path d="M147.968 996.352H916.48c40.448 0 40.448-40.448 40.448-40.448V66.048C956.416 25.6 916.48 25.6 916.48 25.6H147.968S107.52 25.6 107.52 66.048v121.344h40.448V66.048H916.48v889.344H147.968V793.6H107.52v161.792c0 0.512 0 40.96 40.448 40.96z" p-id="15649"></path><path d="M916.48 997.376H147.968c-40.96 0-41.472-40.96-41.472-41.472v-162.816h43.008v161.792h765.952V67.584H148.992v121.344h-43.008v-122.88c0-40.96 40.96-41.472 41.472-41.472H916.48c0.512 0 41.472 0.512 41.472 41.472v889.344c0 1.024-0.512 41.984-41.472 41.984zM108.544 795.136v160.768c0 1.536 0.512 39.424 39.424 39.424H916.48c38.912 0 39.424-37.888 39.424-39.424V66.048c0-38.912-37.376-39.424-39.424-39.424H147.968c-1.536 0-39.424 0.512-39.424 39.424v120.32h37.888V65.024h770.56v891.904H146.944v-161.792h-38.4z" p-id="15650"></path><path d="M306.176 738.816c-5.632 10.752-2.048 23.552 8.704 29.696 3.072 1.536 6.656 2.56 10.24 2.56 7.68 0 15.36-4.096 18.944-11.264 37.888-70.144 110.08-114.176 189.44-116.224h12.288c78.848 2.048 151.04 46.592 189.44 116.224 5.632 10.752 18.944 14.336 29.696 8.704 10.752-5.632 14.336-18.944 8.704-29.696-30.208-55.296-78.848-98.304-137.216-121.344 14.336-8.704 27.648-18.944 39.936-30.72 36.352-36.352 56.32-84.992 56.32-136.192 0-51.712-19.968-99.84-56.32-136.192-36.352-36.352-84.48-56.32-135.68-56.32s-99.84 19.968-135.68 56.32C368.64 350.72 348.672 399.36 348.672 450.56c0 51.712 19.968 99.84 56.32 136.192 11.776 11.776 25.088 22.016 39.936 30.72-59.904 23.04-108.544 66.048-138.752 121.344M391.168 450.56c0-82.432 66.56-148.992 148.48-148.992s148.48 67.072 148.48 148.992c0 80.384-63.488 145.92-142.848 148.992h-11.264c-79.36-3.072-142.848-68.608-142.848-148.992m-324.096 222.208h161.792v40.448H67.072v-40.448z" p-id="15651"></path><path d="M754.176 772.608c-8.192 0-16.384-4.608-19.968-11.776-37.376-69.12-109.568-113.664-188.416-115.712h-12.288c-78.336 2.048-150.528 46.592-188.416 115.712-4.096 7.168-11.776 11.776-19.968 11.776-3.584 0-7.68-1.024-10.752-2.56-11.264-6.144-15.36-19.968-9.216-31.232 29.696-54.784 77.824-97.792 135.68-120.832-13.824-8.192-26.624-18.432-37.888-29.696-36.352-36.864-56.832-85.504-56.832-137.216 0-51.712 19.968-100.352 56.832-137.216 36.352-36.864 84.992-56.832 136.704-56.832 51.712 0 100.352 19.968 136.704 56.832 36.352 36.864 56.832 85.504 56.832 137.216 0 51.712-19.968 100.352-56.832 137.216-11.264 11.264-24.064 21.504-37.888 29.696 57.856 23.04 105.984 66.048 135.68 120.832 6.144 11.264 2.048 25.088-9.216 31.232-3.072 1.536-6.656 2.56-10.752 2.56z m-208.384-130.56c38.912 1.024 77.312 12.288 110.592 32.768 33.28 20.48 60.928 49.664 79.872 83.968 3.584 6.656 10.752 10.752 17.92 10.752 3.584 0 6.656-1.024 9.728-2.56 9.728-5.632 13.824-17.92 8.192-28.16-29.696-55.296-78.336-97.792-136.704-120.832l-2.048-1.024 2.048-1.024c14.336-8.192 27.648-18.432 39.424-30.72 35.84-36.352 55.808-84.48 55.808-135.68s-19.968-99.328-55.808-135.68c-35.84-36.352-83.968-56.32-135.168-56.32s-98.816 19.968-135.168 56.32C368.64 351.232 349.184 399.36 349.184 450.56s19.968 99.328 55.808 135.68c11.776 11.776 25.088 22.016 39.424 30.72l2.048 1.024-2.048 1.024c-58.368 23.04-107.008 65.536-136.704 120.832-5.632 9.728-1.536 22.528 8.192 28.16 3.072 1.536 6.144 2.56 9.728 2.56 7.68 0 14.336-4.096 17.92-10.752 18.944-34.304 46.08-63.488 79.872-83.968 33.28-20.48 71.68-31.744 110.592-32.768h6.144c1.536-1.024 3.584-1.024 5.632-1.024z m-315.904 72.192h-163.84v-43.008h163.84v43.008z m-161.28-2.048h159.232v-37.888H68.608v37.888z m477.184-111.104h-11.776c-38.912-1.536-74.752-17.92-101.888-46.08-27.136-28.16-41.984-65.024-41.984-104.448 0-82.944 67.072-150.528 150.016-150.528 82.432 0 150.016 67.584 150.016 150.528 0 38.912-14.848 76.288-41.984 104.448-27.648 28.16-63.488 44.544-102.4 46.08z m-5.632-2.56h6.144c79.36-3.072 141.312-68.096 141.312-147.968 0-81.408-66.048-147.968-147.456-147.968S392.704 369.152 392.704 450.56c0 79.872 62.464 144.896 141.824 147.968h5.632z" p-id="15652"></path></svg>