<?xml version="1.0" standalone="no"?><!DOCTYPE svg PUBLIC "-//W3C//DTD SVG 1.1//EN" "http://www.w3.org/Graphics/SVG/1.1/DTD/svg11.dtd"><svg t="1534320846516" class="icon" style="" viewBox="0 0 1024 1024" version="1.1" xmlns="http://www.w3.org/2000/svg" p-id="22799" xmlns:xlink="http://www.w3.org/1999/xlink" width="200" height="200"><defs><style type="text/css"></style></defs><path d="M818.501 64.955H205.496c-32.97 0-59.72 26.749-59.72 59.718v774.654c0 32.97 26.75 59.718 59.72 59.718H818.5c33.011 0 59.72-26.75 59.72-59.718V124.673c0.001-32.97-26.709-59.718-59.72-59.718zM837.4 895.244c0 11.001-8.904 19.905-19.908 19.905H205.03c-11.002 0-19.907-8.904-19.907-19.905V127.24c0-11.004 8.905-19.906 19.907-19.906h612.462c11.004 0 19.908 8.902 19.908 19.906v768.004zM466.81 641.236l-33.185-67.26-33.184 67.26-74.183 10.77 53.676 52.335-12.657 73.91 66.348-34.913 66.352 34.913-12.657-73.91 53.692-52.334zM313.78 178.641h398.133v41.484H313.779v-41.484z m0 101.205h398.133v41.484H313.779v-41.484z m0 98.717h398.133v41.485H313.779v-41.485z m232.444 114.035c27.372 15.318 32.349 26.126 32.349 26.126h133.34V477.28H502.055s16.797 0 44.168 15.318z m-114.462 5.404c-101.517 0-183.828 82.27-183.828 183.826 0 101.517 82.31 183.826 183.828 183.826 101.535 0 183.824-82.309 183.824-183.826 0-101.556-82.29-183.826-183.824-183.826z m0 342.77c-87.792 0-158.944-71.192-158.944-158.944 0-87.792 71.152-158.941 158.944-158.941 87.77 0 158.941 71.15 158.941 158.94 0 87.753-71.171 158.946-158.941 158.946z" p-id="22800"></path></svg>