<?xml version="1.0" standalone="no"?><!DOCTYPE svg PUBLIC "-//W3C//DTD SVG 1.1//EN" "http://www.w3.org/Graphics/SVG/1.1/DTD/svg11.dtd"><svg t="1534315689436" class="icon" style="" viewBox="0 0 1025 1024" version="1.1" xmlns="http://www.w3.org/2000/svg" p-id="4762" xmlns:xlink="http://www.w3.org/1999/xlink" width="200.1953125" height="200"><defs><style type="text/css"></style></defs><path d="M583.618 559.122c-78.201-66.518-96.401-55.452-96.401-55.452-32.639 18.093-69.679 29.222-109.645 29.222-43.298 0-83.286-12.71-117.847-33.6C119.663 564.827 15.294 743.487 0 960.193l755.21 2.82c-11.385-169.455-93.368-337.436-171.591-403.889zM377.571 911.446l-56.009-57.951 50.775-265.151-28.431-39.411c7.262-9.954 59.511-10.894 67.393 0l-28.452 39.431 50.775 265.13-56.051 57.951zM259.746 484.85c34.541 20.913 74.528 33.6 117.847 33.6 39.966 0 77.005-11.129 109.645-29.157 70.683-38.855 119.066-113.212 119.066-199.574 0-126.348-102.383-228.731-228.71-228.731-126.348 0-228.752 102.383-228.752 228.731-0.02 83.03 44.666 155.08 110.905 195.131z m649.388 204.637c-52.953-44.986-65.236-37.488-65.236-37.488-22.215 12.261-47.207 19.779-74.25 19.779-29.328 0-56.457-8.63-79.761-22.771-94.906 44.366-165.546 165.332-175.97 312.081l511.398 1.922c-7.626-114.708-63.185-228.475-116.181-273.524zM769.648 928.086l-37.958-39.239 34.349-179.473-19.246-26.786c4.935-6.685 40.308-7.391 45.648 0l-19.204 26.786 34.326 179.473-37.915 39.239zM689.887 639.225c23.305 14.141 50.433 22.771 79.761 22.771 27.043 0 52.034-7.562 74.25-19.779 47.848-26.273 80.637-76.664 80.637-135.107 0-85.614-69.379-154.887-154.887-154.887-85.549 0-154.887 69.273-154.887 154.887 0 56.2 30.183 104.967 75.126 132.116z" p-id="4763"></path></svg>