<?xml version="1.0" standalone="no"?><!DOCTYPE svg PUBLIC "-//W3C//DTD SVG 1.1//EN" "http://www.w3.org/Graphics/SVG/1.1/DTD/svg11.dtd"><svg t="1534320745836" class="icon" style="" viewBox="0 0 1024 1024" version="1.1" xmlns="http://www.w3.org/2000/svg" p-id="18897" xmlns:xlink="http://www.w3.org/1999/xlink" width="200" height="200"><defs><style type="text/css"></style></defs><path d="M510.08426667 83.01546667c-238.16426667 0-431.7056 193.81653333-431.7056 431.7056s193.81546667 431.7056 431.7056 431.7056c67.34186667 0 131.6736-15.056 191.35146666-44.62186667 16.15146667-7.93813333 22.9952-27.648 14.78293334-44.0736s-27.64906667-22.9952-44.07466667-14.78186667c-50.6432 25.184-105.39413333 37.77706667-162.33386667 37.77706667-201.75466667 0-366.00533333-164.25066667-366.00533333-366.00533333 0-201.75466667 164.25066667-366.00533333 366.00533333-366.00533334 201.75466667 0 366.00533333 164.25066667 366.00533334 366.00533334 0 34.21866667-4.65386667 67.616-13.68746667 99.91893333l-32.0288-47.632c-10.12906667-15.056-30.66026667-19.16266667-45.71733333-9.03466667s-19.16266667 30.3872-9.0336 45.71733334l66.24746666 98.54933333c6.29653333 9.58186667 16.69973333 14.50986667 27.376 14.50986667 4.928 0 10.128-1.09546667 14.78186667-3.55946666 7.66506667-3.0112 14.23573333-8.75946667 17.79413333-16.69866668 26.5536-57.21386667 39.968-118.26026667 39.968-181.49653333 0.27306667-238.1632-193.5424-431.97866667-431.43146666-431.97866666z" p-id="18898"></path><path d="M651.0656 499.392c18.0672 0 32.85013333-14.784 32.85013333-32.8512s-14.78293333-32.85013333-32.85013333-32.85013333h-70.90133333l83.76746666-83.76746667c12.86613333-12.86613333 12.86613333-33.67146667 0-46.53866666-12.86613333-12.86506667-33.67146667-12.86506667-46.5376 0l-106.76266666 106.76373333-108.9536-108.95253333c-12.86613333-12.86613333-33.6704-12.86613333-46.5376 0-12.86613333 12.86613333-12.86613333 33.67146667 0 46.53759999l85.9584 85.95733334h-72.544c-18.06826667 0-32.85013333 14.78293333-32.85013334 32.85013333s14.78186667 32.85013333 32.85013334 32.85013333h108.1312v75.28213335H368.55466667c-18.06826667 0-32.85013333 14.78186667-32.85013334 32.85013333S350.48533333 640.37333334 368.55466667 640.37333334h108.1312v120.17599999c0 18.06826667 14.78293333 32.85013333 32.85013333 32.85013334s32.85013333-14.78186667 32.85013333-32.85013334V640.37333334h108.13226667c18.0672 0 32.85013333-14.78293333 32.85013333-32.85013333s-14.78293333-32.85013333-32.85013333-32.85013334H542.38613333v-75.28213334h108.67946667z" p-id="18899"></path></svg>