<?xml version="1.0" standalone="no"?><!DOCTYPE svg PUBLIC "-//W3C//DTD SVG 1.1//EN" "http://www.w3.org/Graphics/SVG/1.1/DTD/svg11.dtd"><svg t="1534315985075" class="icon" style="" viewBox="0 0 1024 1024" version="1.1" xmlns="http://www.w3.org/2000/svg" p-id="5535" xmlns:xlink="http://www.w3.org/1999/xlink" width="200" height="200"><defs><style type="text/css"></style></defs><path d="M731.7888 650.88a367.552 367.552 0 0 1-183.68 296.96c-175.232 101.12-398.848 41.792-499.456-131.968C-37.0432 667.904-5.6832 484.672 113.3568 370.56c0 14.464 2.432 48.832 12.416 85.632a294.4 294.4 0 0 0-17.92 321.728c81.152 140.928 262.912 188.8 405.376 106.56a298.688 298.688 0 0 0 149.248-238.72 84.288 84.288 0 0 1-41.6-96.704c5.888-21.76 20.16-40.32 39.744-51.52a85.376 85.376 0 0 1 116.032 30.912 84.864 84.864 0 0 1-44.928 122.304z m-428.736 27.712a367.232 367.232 0 0 1-170.24-310.4c0-202.24 162.368-366.592 363.52-366.592 170.88 0 314.24 118.528 353.088 278.4a394.752 394.752 0 0 0-79.68-31.36c-46.272-104.128-149.888-176.832-269.888-176.832-163.328 0-295.36 133.44-295.36 297.856 0 100.48 50.112 193.728 133.12 248.896a85.12 85.12 0 0 1 135.296 68.8 84.8 84.8 0 0 1-85.12 85.12 85.12 85.12 0 0 1-84.736-93.952z m184.96-393.6A366.464 366.464 0 0 1 838.4768 294.4c175.36 101.568 236.096 324.672 135.424 498.496-86.08 148.864-261.888 213.632-420.8 165.76a381.568 381.568 0 0 0 67.776-53.248 295.296 295.296 0 0 0 290.816-144.896c81.152-140.992 31.872-322.24-110.528-404.416a297.472 297.472 0 0 0-275.52-12.48c2.88 18.944-0.768 38.272-10.368 54.848a84.352 84.352 0 0 1-116.032 30.848 84.928 84.928 0 0 1 22.528-156.352c22.72-5.376 46.72-1.024 66.176 11.904z" p-id="5536"></path></svg>